<svg id="Layer_1" data-name="Layer 1" xmlns="http://www.w3.org/2000/svg" viewBox="0 0 28 22"><title>1933-nursery-quotation-mark</title><path d="M27.17,10.151H22.263a8.42,8.42,0,0,0,1.371,4.805A8.4237,8.4237,0,0,0,28,17.773L26.015,22a14.6407,14.6407,0,0,1-5.358-3.197,10.5319,10.5319,0,0,1-2.869-4.57,25.1375,25.1375,0,0,1-.757-6.936V0H27.17Zm-17.031,0H5.268a8.1514,8.1514,0,0,0,1.353,4.805,8.515,8.515,0,0,0,4.348,2.817L8.984,22a14.6908,14.6908,0,0,1-5.322-3.197,10.6756,10.6756,0,0,1-2.886-4.57A24.5773,24.5773,0,0,1,0,7.297V0H10.139Z" style="fill:#d8d8d8"/></svg>