<?xml version="1.0" encoding="utf-8"?>
<!-- Generator: Adobe Illustrator 16.0.0, SVG Export Plug-In . SVG Version: 6.00 Build 0)  -->
<!DOCTYPE svg PUBLIC "-//W3C//DTD SVG 1.1//EN" "http://www.w3.org/Graphics/SVG/1.1/DTD/svg11.dtd">
<svg version="1.1" id="Warstwa_1" xmlns="http://www.w3.org/2000/svg" xmlns:xlink="http://www.w3.org/1999/xlink" x="0px" y="0px"
	 width="1366px" height="217.093px" viewBox="0 0 1366 217.093" enable-background="new 0 0 1366 217.093" xml:space="preserve">
<g>
	<path fill-rule="evenodd" clip-rule="evenodd" fill="#F7F7F7" d="M1366,213.093V239.5H0v-26.407
		c4.28-8.557,119.175-53.612,119.175-53.612l85.46,45.333l223.84-130.75l92.74,65.307l109.42-56.75l146.379,68.443l106.141-44.055
		l79.04,46.055l212-119.639l74.04,47.056L1366,85.028V213.093z"/>
</g>
<g>
	<path fill-rule="evenodd" clip-rule="evenodd" fill="none" stroke="#FF8735" stroke-width="2.5" stroke-miterlimit="10" d="
		M0,213.293c4.28-8.557,119.175-53.612,119.175-53.612l85.46,45.333l223.84-130.75l92.74,65.306l109.42-56.75l146.379,68.444
		l106.141-44.055l79.04,46.055l212-119.639l74.04,47.056L1366,85.229"/>
</g>
<g>
	<path fill-rule="evenodd" clip-rule="evenodd" fill="#FFFFFF" stroke="#FFFFFF" stroke-width="5" stroke-miterlimit="10" d="
		M118.518,149.059c5.319,0,9.63,4.309,9.63,9.625s-4.311,9.625-9.63,9.625c-5.318,0-9.63-4.309-9.63-9.625
		S113.199,149.059,118.518,149.059z"/>
	<path fill-rule="evenodd" clip-rule="evenodd" fill="#FFFFFF" stroke="#FFFFFF" stroke-width="5" stroke-miterlimit="10" d="
		M204.123,193.971c5.318,0,9.63,4.309,9.63,9.625c0,5.315-4.312,9.624-9.63,9.624c-5.319,0-9.63-4.309-9.63-9.624
		C194.492,198.279,198.804,193.971,204.123,193.971z"/>
	<path fill-rule="evenodd" clip-rule="evenodd" fill="#FFFFFF" stroke="#FFFFFF" stroke-width="5" stroke-miterlimit="10" d="
		M426.676,63.5c5.318,0,9.63,4.309,9.63,9.625s-4.312,9.625-9.63,9.625s-9.63-4.309-9.63-9.625S421.357,63.5,426.676,63.5z"/>
	<path fill-rule="evenodd" clip-rule="evenodd" fill="#FFFFFF" stroke="#FFFFFF" stroke-width="5" stroke-miterlimit="10" d="
		M520.842,127.661c5.318,0,9.63,4.31,9.63,9.625s-4.312,9.625-9.63,9.625s-9.63-4.31-9.63-9.625S515.523,127.661,520.842,127.661z"
		/>
	<path fill-rule="evenodd" clip-rule="evenodd" fill="#FFFFFF" stroke="#FFFFFF" stroke-width="5" stroke-miterlimit="10" d="
		M629.982,72.059c5.319,0,9.63,4.309,9.63,9.625c0,5.315-4.312,9.625-9.63,9.625c-5.318,0-9.63-4.309-9.63-9.625
		C620.352,76.368,624.664,72.059,629.982,72.059z"/>
	<path fill-rule="evenodd" clip-rule="evenodd" fill="#FFFFFF" stroke="#FFFFFF" stroke-width="5" stroke-miterlimit="10" d="
		M777.641,140.5c5.318,0,9.63,4.309,9.63,9.625c0,5.315-4.312,9.625-9.63,9.625c-5.319,0-9.631-4.31-9.631-9.625
		C768.01,144.809,772.321,140.5,777.641,140.5z"/>
	<path fill-rule="evenodd" clip-rule="evenodd" fill="#FFFFFF" stroke="#FFFFFF" stroke-width="5" stroke-miterlimit="10" d="
		M882.5,97.72c5.318,0,9.63,4.31,9.63,9.626c0,5.315-4.312,9.624-9.63,9.624s-9.63-4.309-9.63-9.624
		C872.87,102.029,877.182,97.72,882.5,97.72z"/>
	<path fill-rule="evenodd" clip-rule="evenodd" fill="#FFFFFF" stroke="#FFFFFF" stroke-width="5" stroke-miterlimit="10" d="
		M961.676,142.631c5.318,0,9.63,4.311,9.63,9.626s-4.312,9.625-9.63,9.625s-9.63-4.31-9.63-9.625S956.357,142.631,961.676,142.631z"
		/>
	<path fill-rule="evenodd" clip-rule="evenodd" fill="#FFFFFF" stroke="#FFFFFF" stroke-width="5" stroke-miterlimit="10" d="
		M1173.543,25c5.318,0,9.63,4.309,9.63,9.625s-4.312,9.625-9.63,9.625s-9.63-4.309-9.63-9.625S1168.225,25,1173.543,25z"/>
	<path fill-rule="evenodd" clip-rule="evenodd" fill="#FFFFFF" stroke="#FFFFFF" stroke-width="5" stroke-miterlimit="10" d="
		M1248.438,69.911c5.318,0,9.63,4.309,9.63,9.625s-4.312,9.625-9.63,9.625s-9.63-4.309-9.63-9.625S1243.12,69.911,1248.438,69.911z"
		/>
</g>
<g>
	<g>
		<path fill-rule="evenodd" clip-rule="evenodd" fill="#FFFFFF" d="M118.518,167.059c-4.621,0-8.38-3.757-8.38-8.375
			s3.759-8.375,8.38-8.375s8.38,3.757,8.38,8.375S123.138,167.059,118.518,167.059z"/>
		<path fill="#FF8735" d="M118.518,151.559c3.932,0,7.13,3.196,7.13,7.125s-3.198,7.125-7.13,7.125s-7.13-3.196-7.13-7.125
			S114.586,151.559,118.518,151.559 M118.518,149.059c-5.318,0-9.63,4.309-9.63,9.625s4.312,9.625,9.63,9.625
			c5.319,0,9.63-4.309,9.63-9.625S123.836,149.059,118.518,149.059L118.518,149.059z"/>
	</g>
	<g>
		<path fill-rule="evenodd" clip-rule="evenodd" fill="#FFFFFF" d="M204.123,211.97c-4.621,0-8.38-3.756-8.38-8.374
			c0-4.618,3.759-8.375,8.38-8.375c4.621,0,8.38,3.757,8.38,8.375C212.502,208.213,208.743,211.97,204.123,211.97z"/>
		<path fill="#FF8735" d="M204.123,196.471c3.932,0,7.13,3.196,7.13,7.125c0,3.928-3.198,7.124-7.13,7.124s-7.13-3.196-7.13-7.124
			C196.992,199.667,200.191,196.471,204.123,196.471 M204.123,193.971c-5.319,0-9.63,4.309-9.63,9.625
			c0,5.315,4.312,9.624,9.63,9.624c5.318,0,9.63-4.309,9.63-9.624C213.752,198.279,209.441,193.971,204.123,193.971L204.123,193.971
			z"/>
	</g>
	<g>
		<path fill-rule="evenodd" clip-rule="evenodd" fill="#FFFFFF" d="M426.676,81.5c-4.621,0-8.38-3.757-8.38-8.375
			s3.759-8.375,8.38-8.375s8.38,3.757,8.38,8.375S431.296,81.5,426.676,81.5z"/>
		<path fill="#FF8735" d="M426.676,66c3.932,0,7.13,3.196,7.13,7.125s-3.198,7.125-7.13,7.125s-7.13-3.196-7.13-7.125
			S422.744,66,426.676,66 M426.676,63.5c-5.318,0-9.63,4.309-9.63,9.625s4.312,9.625,9.63,9.625s9.63-4.309,9.63-9.625
			S431.994,63.5,426.676,63.5L426.676,63.5z"/>
	</g>
	<g>
		<path fill-rule="evenodd" clip-rule="evenodd" fill="#FFFFFF" d="M520.842,145.661c-4.621,0-8.38-3.757-8.38-8.375
			s3.759-8.375,8.38-8.375s8.38,3.757,8.38,8.375S525.462,145.661,520.842,145.661z"/>
		<path fill="#FF8735" d="M520.842,130.161c3.932,0,7.13,3.196,7.13,7.125s-3.198,7.125-7.13,7.125s-7.13-3.196-7.13-7.125
			S516.91,130.161,520.842,130.161 M520.842,127.661c-5.318,0-9.63,4.31-9.63,9.625s4.312,9.625,9.63,9.625s9.63-4.31,9.63-9.625
			S526.16,127.661,520.842,127.661L520.842,127.661z"/>
	</g>
	<g>
		<path fill-rule="evenodd" clip-rule="evenodd" fill="#FFFFFF" d="M629.982,90.059c-4.621,0-8.38-3.757-8.38-8.375
			c0-4.618,3.759-8.375,8.38-8.375c4.621,0,8.38,3.757,8.38,8.375C638.362,86.302,634.603,90.059,629.982,90.059z"/>
		<path fill="#FF8735" d="M629.982,74.559c3.932,0,7.13,3.196,7.13,7.125c0,3.928-3.199,7.125-7.13,7.125
			c-3.931,0-7.13-3.196-7.13-7.125C622.852,77.755,626.051,74.559,629.982,74.559 M629.982,72.059c-5.318,0-9.63,4.309-9.63,9.625
			c0,5.315,4.312,9.625,9.63,9.625c5.319,0,9.63-4.309,9.63-9.625C639.612,76.368,635.301,72.059,629.982,72.059L629.982,72.059z"/>
	</g>
	<g>
		<path fill-rule="evenodd" clip-rule="evenodd" fill="#FFFFFF" d="M777.641,158.5c-4.621,0-8.381-3.757-8.381-8.375
			s3.76-8.375,8.381-8.375s8.38,3.757,8.38,8.375S782.262,158.5,777.641,158.5z"/>
		<path fill="#FF8735" d="M777.641,143c3.932,0,7.13,3.196,7.13,7.125s-3.198,7.125-7.13,7.125s-7.131-3.196-7.131-7.125
			S773.709,143,777.641,143 M777.641,140.5c-5.319,0-9.631,4.309-9.631,9.625c0,5.315,4.312,9.625,9.631,9.625
			c5.318,0,9.63-4.31,9.63-9.625C787.271,144.809,782.959,140.5,777.641,140.5L777.641,140.5z"/>
	</g>
	<g>
		<path fill-rule="evenodd" clip-rule="evenodd" fill="#FFFFFF" d="M882.5,115.72c-4.621,0-8.38-3.756-8.38-8.374
			c0-4.619,3.759-8.376,8.38-8.376s8.38,3.757,8.38,8.376C890.88,111.963,887.121,115.72,882.5,115.72z"/>
		<path fill="#FF8735" d="M882.5,100.22c3.932,0,7.13,3.197,7.13,7.126c0,3.928-3.198,7.124-7.13,7.124s-7.13-3.196-7.13-7.124
			C875.37,103.417,878.568,100.22,882.5,100.22 M882.5,97.72c-5.318,0-9.63,4.31-9.63,9.626c0,5.315,4.312,9.624,9.63,9.624
			s9.63-4.309,9.63-9.624C892.13,102.029,887.818,97.72,882.5,97.72L882.5,97.72z"/>
	</g>
	<g>
		<path fill-rule="evenodd" clip-rule="evenodd" fill="#FFFFFF" d="M961.676,160.632c-4.621,0-8.38-3.757-8.38-8.375
			c0-4.619,3.759-8.376,8.38-8.376s8.38,3.757,8.38,8.376C970.056,156.875,966.297,160.632,961.676,160.632z"/>
		<path fill="#FF8735" d="M961.676,145.131c3.932,0,7.13,3.197,7.13,7.126c0,3.929-3.198,7.125-7.13,7.125s-7.13-3.196-7.13-7.125
			C954.546,148.328,957.744,145.131,961.676,145.131 M961.676,142.631c-5.318,0-9.63,4.311-9.63,9.626s4.312,9.625,9.63,9.625
			s9.63-4.31,9.63-9.625S966.994,142.631,961.676,142.631L961.676,142.631z"/>
	</g>
	<g>
		<path fill-rule="evenodd" clip-rule="evenodd" fill="#FFFFFF" d="M1173.543,43c-4.621,0-8.38-3.757-8.38-8.375
			c0-4.618,3.759-8.375,8.38-8.375s8.38,3.757,8.38,8.375C1181.923,39.243,1178.164,43,1173.543,43z"/>
		<path fill="#FF8735" d="M1173.543,27.5c3.932,0,7.13,3.196,7.13,7.125c0,3.929-3.198,7.125-7.13,7.125s-7.13-3.196-7.13-7.125
			C1166.413,30.696,1169.611,27.5,1173.543,27.5 M1173.543,25c-5.318,0-9.63,4.309-9.63,9.625s4.312,9.625,9.63,9.625
			s9.63-4.309,9.63-9.625S1178.861,25,1173.543,25L1173.543,25z"/>
	</g>
	<g>
		<path fill-rule="evenodd" clip-rule="evenodd" fill="#FFFFFF" d="M1248.438,87.911c-4.621,0-8.38-3.757-8.38-8.375
			s3.759-8.375,8.38-8.375s8.38,3.757,8.38,8.375S1253.06,87.911,1248.438,87.911z"/>
		<path fill="#FF8735" d="M1248.438,72.411c3.932,0,7.13,3.196,7.13,7.125s-3.198,7.125-7.13,7.125s-7.13-3.196-7.13-7.125
			S1244.507,72.411,1248.438,72.411 M1248.438,69.911c-5.318,0-9.63,4.309-9.63,9.625s4.312,9.625,9.63,9.625s9.63-4.309,9.63-9.625
			S1253.757,69.911,1248.438,69.911L1248.438,69.911z"/>
	</g>
</g>
</svg>
